<?xml version="1.0" encoding="UTF-8" standalone="no"?>
<svg
   xmlns:osb="http://www.openswatchbook.org/uri/2009/osb"
   xmlns:dc="http://purl.org/dc/elements/1.1/"
   xmlns:cc="http://creativecommons.org/ns#"
   xmlns:rdf="http://www.w3.org/1999/02/22-rdf-syntax-ns#"
   xmlns:svg="http://www.w3.org/2000/svg"
   xmlns="http://www.w3.org/2000/svg"
   xmlns:sodipodi="http://sodipodi.sourceforge.net/DTD/sodipodi-0.dtd"
   xmlns:inkscape="http://www.inkscape.org/namespaces/inkscape"
   width="210mm"
   height="297mm"
   viewBox="0 0 210 297"
   version="1.1"
   id="svg8"
   inkscape:export-filename="/Users/ebordons/Documents/logoblanc.png"
   inkscape:export-xdpi="39.23"
   inkscape:export-ydpi="39.23"
   sodipodi:docname="ViatgeaItaca.svg"
   inkscape:version="1.0.2 (e86c8708, 2021-01-15)">
  <defs
     id="defs2">
    <linearGradient
       id="linearGradient3490"
       osb:paint="solid">
      <stop
         style="stop-color:#000000;stop-opacity:1;"
         offset="0"
         id="stop3488" />
    </linearGradient>
    <linearGradient
       id="linearGradient1566"
       osb:paint="solid">
      <stop
         style="stop-color:#000000;stop-opacity:1;"
         offset="0"
         id="stop1564" />
    </linearGradient>
  </defs>
  <sodipodi:namedview
     id="base"
     pagecolor="#f6f6f6"
     bordercolor="#666666"
     borderopacity="1.0"
     inkscape:pageopacity="0.01568627"
     inkscape:pageshadow="2"
     inkscape:zoom="1.1099695"
     inkscape:cx="733.60216"
     inkscape:cy="277.04064"
     inkscape:document-units="mm"
     inkscape:current-layer="layer1"
     inkscape:document-rotation="0"
     showgrid="false"
     inkscape:lockguides="true"
     inkscape:snap-global="false"
     inkscape:window-width="1261"
     inkscape:window-height="847"
     inkscape:window-x="0"
     inkscape:window-y="25"
     inkscape:window-maximized="0"
     inkscape:pagecheckerboard="true" />
  <metadata
     id="metadata5">
    <rdf:RDF>
      <cc:Work
         rdf:about="">
        <dc:format>image/svg+xml</dc:format>
        <dc:type
           rdf:resource="http://purl.org/dc/dcmitype/StillImage" />
        <dc:title></dc:title>
      </cc:Work>
    </rdf:RDF>
  </metadata>
  <g
     inkscape:label="Capa 1"
     inkscape:groupmode="layer"
     id="layer1">
    <g
       id="g434"
       transform="matrix(0.26458333,0,0,0.26458333,110.59959,61.412386)">
</g>
    <g
       id="g436"
       transform="matrix(0.26458333,0,0,0.26458333,110.59959,61.412386)">
</g>
    <g
       id="g438"
       transform="matrix(0.26458333,0,0,0.26458333,110.59959,61.412386)">
</g>
    <g
       id="g440"
       transform="matrix(0.26458333,0,0,0.26458333,110.59959,61.412386)">
</g>
    <g
       id="g442"
       transform="matrix(0.26458333,0,0,0.26458333,110.59959,61.412386)">
</g>
    <g
       id="g444"
       transform="matrix(0.26458333,0,0,0.26458333,110.59959,61.412386)">
</g>
    <g
       id="g446"
       transform="matrix(0.26458333,0,0,0.26458333,110.59959,61.412386)">
</g>
    <g
       id="g448"
       transform="matrix(0.26458333,0,0,0.26458333,110.59959,61.412386)">
</g>
    <g
       id="g450"
       transform="matrix(0.26458333,0,0,0.26458333,110.59959,61.412386)">
</g>
    <g
       id="g452"
       transform="matrix(0.26458333,0,0,0.26458333,110.59959,61.412386)">
</g>
    <g
       id="g454"
       transform="matrix(0.26458333,0,0,0.26458333,110.59959,61.412386)">
</g>
    <g
       id="g456"
       transform="matrix(0.26458333,0,0,0.26458333,110.59959,61.412386)">
</g>
    <g
       id="g458"
       transform="matrix(0.26458333,0,0,0.26458333,110.59959,61.412386)">
</g>
    <g
       id="g460"
       transform="matrix(0.26458333,0,0,0.26458333,110.59959,61.412386)">
</g>
    <g
       id="g462"
       transform="matrix(0.26458333,0,0,0.26458333,110.59959,61.412386)">
</g>
    <g
       id="g4527"
       inkscape:export-filename="/Users/ebordons/Documents/Logo/PNG/blanc opacitat 70 amplada 300.png"
       inkscape:export-xdpi="39"
       inkscape:export-ydpi="39">
      <g
         id="outline"
         transform="matrix(0.40831795,-0.21021079,0.19620196,0.38110691,59.350497,25.62614)"
         style="opacity:1;fill:#ffffff;fill-opacity:1">
        <path
           d="m 22,44 a 3,3 0 1 0 3,3 3,3 0 0 0 -3,-3 z m 0,4 a 1,1 0 1 1 1,-1 1,1 0 0 1 -1,1 z"
           id="path319"
           style="fill:#ffffff;fill-opacity:1" />
        <path
           d="m 48,44 a 3,3 0 1 0 3,3 3,3 0 0 0 -3,-3 z m 0,4 a 1,1 0 1 1 1,-1 1,1 0 0 1 -1,1 z"
           id="path321"
           style="fill:#ffffff;fill-opacity:1" />
        <path
           d="m 19,27 a 1,1 0 0 0 -1,-1 h -4 a 1,1 0 0 0 -1,1 v 4 a 1,1 0 0 0 1,1 h 4 a 1,1 0 0 0 1,-1 z m -2,3 h -2 v -2 h 2 z"
           id="path323"
           style="fill:#ffffff;fill-opacity:1" />
        <path
           d="m 36,22 h -8 a 3,3 0 0 0 -3,3 v 6 a 3,3 0 0 0 3,3 h 8 a 3,3 0 0 0 3,-3 v -6 a 3,3 0 0 0 -3,-3 z m -5,10 h -3 a 1,1 0 0 1 -1,-1 v -6 a 1,1 0 0 1 1,-1 h 3 z m 6,-1 a 1,1 0 0 1 -1,1 h -3 v -8 h 3 a 1,1 0 0 1 1,1 z"
           id="path325"
           style="fill:#ffffff;fill-opacity:1" />
        <path
           d="M 56.618,24 H 59 a 1,1 0 0 0 1,-1 v -8 a 1,1 0 0 0 -0.375,-0.781 l -5,-4 A 1,1 0 0 0 54,10 H 40 a 1,1 0 0 0 -0.316,0.051 l -5.88,1.96 L 4.931,14 A 1,1 0 0 0 4,15 v 3.93 L 1.988,33.012 4,45.083 V 46 H 2 v 2 h 11.618 l 1,-2 h 0.462 a 7,7 0 1 0 13.84,0 h 0.666 l 2,2 h 6.828 l 2,-2 h 0.666 a 7,7 0 1 0 13.84,0 H 62 V 30.465 l -3.224,-2.15 z M 6,15.934 34.069,14 a 0.993,0.993 0 0 0 0.247,-0.049 L 40.162,12 H 53.649 L 58,15.48 V 22 H 43 V 18 H 6 Z m 46,13.3 V 32 h -9 v -8 h 6.382 z M 4.179,34 H 9 v 2 H 4.51 Z m 0.668,4 H 9 v 2 H 5.181 Z m 8.535,6 -1,2 H 6 V 45 L 5.5,42 h 11.61 a 7.033,7.033 0 0 0 -1.425,2 z M 21,37 v 3 H 11 V 25 a 1,1 0 0 1 1,-1 h 8 a 1,1 0 0 1 1,1 v 10 h -2 v 2 z m 1,15 a 5,5 0 1 1 5,-5 5.006,5.006 0 0 1 -5,5 z m 17.586,-8 -2,2 h -5.172 l -2,-2 h -2.1 A 7.033,7.033 0 0 0 26.889,42 H 43.11 a 7.033,7.033 0 0 0 -1.425,2 z M 48,52 a 5,5 0 1 1 5,-5 5.006,5.006 0 0 1 -5,5 z m 8,-8 H 54.315 A 7.033,7.033 0 0 0 52.89,42 H 56 Z m 0,-4 H 23 v -2 h 33 z m 4,4 h -2 v -4 h 2 z m 0,-6 h -2 v -3 a 1,1 0 0 1 1,-1 h 1 z m 0,-6 h -1 a 3,3 0 0 0 -3,3 v 1 H 23 V 25 a 3,3 0 0 0 -3,-3 h -8 a 3,3 0 0 0 -3,3 v 7 H 4.153 L 4.439,30 H 7 V 28 H 4.724 L 5.01,26 H 7 V 24 H 5.3 L 5.871,20 H 41 v 13 a 1,1 0 0 0 1,1 h 11 a 1,1 0 0 0 1,-1 V 29 A 1,1 0 0 0 53.9,28.553 L 51.618,24 h 2.764 l 2.842,5.685 2.776,1.85 z"
           id="path327"
           style="fill:#ffffff;fill-opacity:1" />
        <path
           d="m 48,20 h 4 a 3,3 0 0 0 0,-6 h -4 a 3,3 0 0 0 0,6 z m 3,-4 h 1 a 1,1 0 0 1 0,2 h -1 z m -3,0 h 1 v 2 h -1 a 1,1 0 0 1 0,-2 z"
           id="path329"
           style="fill:#ffffff;fill-opacity:1" />
        <rect
           x="41"
           y="14"
           width="2"
           height="2"
           id="rect331"
           style="fill:#ffffff;fill-opacity:1" />
        <rect
           x="37"
           y="14"
           width="2"
           height="2"
           id="rect333"
           style="fill:#ffffff;fill-opacity:1" />
      </g>
      <g
         id="g655"
         transform="matrix(1.5317731,0,0,1.5339895,65.841869,30.22492)"
         style="opacity:0.7;fill:#ffffff;fill-opacity:1;stroke-width:0.478185;stroke-miterlimit:4;stroke-dasharray:none">
        <g
           id="g593"
           style="fill:#ffffff;fill-opacity:1;stroke-width:0.478185;stroke-miterlimit:4;stroke-dasharray:none">
	<g
   id="g591"
   style="fill:#ffffff;fill-opacity:1;stroke-width:0.478185;stroke-miterlimit:4;stroke-dasharray:none">
		<polygon
   points="35.7,10.333 35.514,9.442 34.783,9.591 34.578,9.905 34.578,10.259 34.93,10.5 35.432,10.815 35.479,11.176 34.938,11.288 34.866,12.057 35.514,12.057 36.376,11.974 36.821,11.445 36.348,11.261 36.089,10.963 "
   id="polygon579"
   style="fill:#ffffff;fill-opacity:1;stroke-width:0.478185;stroke-miterlimit:4;stroke-dasharray:none" />

		<polygon
   points="33.374,11.76 33.893,11.76 34.809,11.111 34.848,10.629 34.419,10.444 33.819,10.583 33.374,11.297 "
   id="polygon581"
   style="fill:#ffffff;fill-opacity:1;stroke-width:0.478185;stroke-miterlimit:4;stroke-dasharray:none" />

		<path
   d="m 22.459,13.158 -0.132,0.34 h -0.639 v 0.33 h 0.152 c 0,0 0.009,0.07 0.022,0.162 l 0.392,-0.033 0.245,-0.152 0.064,-0.307 0.317,-0.027 0.125,-0.258 -0.291,-0.06 z"
   id="path583"
   style="fill:#ffffff;fill-opacity:1;stroke-width:0.478185;stroke-miterlimit:4;stroke-dasharray:none" />

		<polygon
   points="21.02,13.498 20.812,13.757 20.787,14.08 21.25,14.041 21.298,13.717 "
   id="polygon585"
   style="fill:#ffffff;fill-opacity:1;stroke-width:0.478185;stroke-miterlimit:4;stroke-dasharray:none" />

		<path
   d="M 48.619,24.061 C 48.612,23.35 48.576,22.644 48.509,21.949 48.284,19.632 47.73,17.411 46.9,15.329 46.838,15.174 46.781,15.017 46.715,14.864 45.609,12.251 44.056,9.872 42.155,7.819 42.03,7.685 41.903,7.553 41.776,7.423 41.417,7.05 41.048,6.686 40.666,6.337 36.344,2.402 30.604,0 24.312,0 17.967,0 12.186,2.445 7.852,6.44 6.842,7.371 5.914,8.387 5.072,9.475 1.896,13.583 0,18.729 0,24.312 c 0,13.407 10.907,24.313 24.313,24.313 9.43,0 17.617,-5.4 21.647,-13.268 0.862,-1.682 1.533,-3.475 1.985,-5.354 0.115,-0.477 0.214,-0.956 0.3,-1.441 0.245,-1.381 0.379,-2.801 0.379,-4.25 10e-4,-0.084 -0.004,-0.167 -0.005,-0.251 z m -4.576,-9.717 0.141,-0.158 c 0.185,0.359 0.358,0.724 0.523,1.094 l -0.23,-0.009 -0.434,0.06 z M 40.53,10.102 40.534,9.016 c 0.382,0.405 0.75,0.822 1.102,1.254 l -0.438,0.652 -1.531,-0.014 -0.096,-0.319 z M 11.202,7.403 V 7.362 h 0.487 l 0.042,-0.167 h 0.797 v 0.348 l -0.229,0.306 h -1.098 z m 0.778,1.085 c 0,0 0.487,-0.083 0.529,-0.083 0.042,0 0,0.486 0,0.486 L 11.411,8.96 11.202,8.71 Z m 33.612,9.651 h -1.779 l -1.084,-0.807 -1.141,0.111 v 0.696 h -0.361 l -0.39,-0.278 -1.976,-0.501 v -1.28 l -2.504,0.195 -0.776,0.417 h -0.994 l -0.487,-0.049 -1.207,0.67 v 1.261 l -2.467,1.78 0.205,0.76 h 0.5 L 31,21.838 l -0.352,0.129 -0.019,1.892 2.132,2.428 h 0.928 l 0.056,-0.148 h 1.668 l 0.481,-0.445 h 0.946 l 0.519,0.52 1.41,0.146 -0.187,1.875 1.565,2.763 -0.824,1.575 0.056,0.742 0.649,0.647 v 1.784 l 0.852,1.146 v 1.482 h 0.736 c -4.096,5.029 -10.33,8.25 -17.305,8.25 C 12.009,46.625 2,36.615 2,24.312 2,21.215 2.636,18.263 3.781,15.58 V 14.884 L 4.579,13.915 C 4.856,13.392 5.153,12.882 5.47,12.385 L 5.506,12.79 4.58,13.915 C 4.293,14.457 4.025,15.011 3.782,15.58 v 1.27 l 0.927,0.446 v 1.765 l 0.889,1.517 0.723,0.111 0.093,-0.52 -0.853,-1.316 -0.167,-1.279 h 0.5 l 0.211,1.316 1.233,1.799 -0.318,0.581 0.784,1.199 1.947,0.482 v -0.315 l 0.779,0.111 -0.074,0.556 0.612,0.112 0.945,0.258 1.335,1.521 1.705,0.129 0.167,1.391 -1.167,0.816 -0.055,1.242 -0.167,0.76 1.688,2.113 0.129,0.724 c 0,0 0.612,0.166 0.687,0.166 0.074,0 1.372,0.983 1.372,0.983 v 3.819 l 0.463,0.13 -0.315,1.762 0.779,1.039 -0.144,1.746 1.029,1.809 1.321,1.154 1.328,0.024 0.13,-0.427 -0.976,-0.822 0.056,-0.408 0.175,-0.5 0.037,-0.51 -0.66,-0.02 -0.333,-0.418 0.548,-0.527 0.074,-0.398 -0.612,-0.175 0.036,-0.37 0.872,-0.132 1.326,-0.637 0.445,-0.816 1.391,-1.78 -0.316,-1.392 0.427,-0.741 1.279,0.039 0.861,-0.682 0.278,-2.686 0.955,-1.213 0.167,-0.779 -0.871,-0.279 -0.575,-0.943 -1.965,-0.02 -1.558,-0.594 -0.074,-1.111 -0.52,-0.909 -1.409,-0.021 -0.814,-1.278 -0.723,-0.353 -0.037,0.39 -1.316,0.078 -0.482,-0.671 -1.373,-0.279 -1.131,1.307 -1.78,-0.302 -0.129,-2.006 -1.299,-0.222 0.521,-0.984 -0.149,-0.565 -1.707,1.141 -1.074,-0.131 -0.383,-0.839 0.234,-0.865 0.592,-1.091 1.363,-0.69 2.632,-0.001 -0.007,0.803 0.946,0.44 -0.075,-1.372 0.682,-0.686 1.376,-0.904 0.094,-0.636 1.372,-1.428 1.459,-0.808 -0.129,-0.106 0.988,-0.93 0.362,0.096 0.166,0.208 0.375,-0.416 0.092,-0.041 -0.411,-0.058 -0.417,-0.139 v -0.4 l 0.221,-0.181 h 0.487 l 0.223,0.098 0.193,0.39 0.236,-0.036 v -0.034 l 0.068,0.023 0.684,-0.105 0.097,-0.334 0.39,0.098 v 0.362 l -0.362,0.249 h 10e-4 l 0.053,0.397 1.239,0.382 c 0,0 10e-4,0.005 0.003,0.015 l 0.285,-0.024 0.019,-0.537 -0.982,-0.447 -0.056,-0.258 0.815,-0.278 0.036,-0.78 -0.852,-0.519 -0.056,-1.315 -1.168,0.574 h -0.426 l 0.112,-1.001 -1.59,-0.375 -0.658,0.497 v 1.516 l -1.183,0.375 -0.474,0.988 -0.514,0.083 V 10.551 L 16.903,10.397 16.347,10.035 16.123,9.216 18.112,8.052 19.085,7.756 19.183,8.41 19.725,8.382 19.767,8.053 20.334,7.972 20.344,7.857 20.1,7.756 20.044,7.408 l 0.697,-0.059 0.421,-0.438 0.023,-0.032 0.005,0.002 0.128,-0.132 1.465,-0.185 0.648,0.55 -1.699,0.905 2.162,0.51 0.28,-0.723 h 0.945 L 25.453,7.176 24.785,7.009 V 6.212 L 22.69,5.284 21.244,5.451 20.428,5.878 20.484,6.916 19.631,6.786 19.5,6.212 20.317,5.47 18.834,5.396 l -0.426,0.129 -0.185,0.5 0.556,0.094 -0.111,0.556 -0.945,0.056 -0.148,0.37 -1.371,0.038 c 0,0 -0.038,-0.778 -0.093,-0.778 -0.055,0 1.075,-0.019 1.075,-0.019 L 18.003,5.544 17.557,5.321 16.964,5.897 15.98,5.841 15.387,5.025 H 14.126 L 12.81,6.008 h 1.206 l 0.11,0.353 -0.313,0.291 1.335,0.037 0.204,0.482 L 13.849,7.115 13.776,6.744 12.831,6.54 12.33,6.262 11.205,6.271 C 14.888,3.588 19.417,2 24.312,2 c 5.642,0 10.797,2.109 14.73,5.574 l -0.265,0.474 -1.029,0.403 -0.434,0.471 0.1,0.549 0.531,0.074 0.32,0.8 0.916,-0.369 0.151,1.07 h -0.276 l -0.752,-0.111 -0.834,0.14 -0.807,1.14 -1.154,0.181 -0.167,0.988 0.487,0.115 -0.141,0.635 -1.146,-0.23 -1.051,0.23 -0.223,0.585 0.182,1.228 0.617,0.289 1.035,-0.006 0.699,-0.063 0.213,-0.556 1.092,-1.419 0.719,0.147 0.708,-0.64 0.132,0.5 1.742,1.175 -0.213,0.286 -0.785,-0.042 0.302,0.428 0.483,0.106 0.566,-0.236 -0.012,-0.682 0.251,-0.126 -0.202,-0.214 -1.162,-0.648 -0.306,-0.861 h 0.966 l 0.309,0.306 0.832,0.717 0.035,0.867 0.862,0.918 0.321,-1.258 0.597,-0.326 0.112,1.029 0.583,0.64 1.163,-0.02 c 0.225,0.579 0.427,1.168 0.604,1.769 z m -32.331,-7.093 0.584,-0.278 0.528,0.126 -0.182,0.709 -0.57,0.181 z m 3.099,1.669 v 0.459 h -1.334 l -0.5,-0.139 0.125,-0.32 0.641,-0.265 h 0.876 v 0.265 z m 0.614,0.64 V 13.8 l -0.334,0.215 -0.416,0.077 c 0,0 0,-0.667 0,-0.737 z m -0.376,-0.181 v -0.529 l 0.459,0.418 z m 0.209,1.07 v 0.433 l -0.319,0.32 h -0.709 l 0.111,-0.486 0.335,-0.029 0.069,-0.167 z m -1.766,-0.889 h 0.737 l -0.945,1.321 -0.39,-0.209 0.084,-0.556 z m 3.018,0.737 v 0.432 H 17.35 l -0.194,-0.28 v -0.402 h 0.056 z m -0.655,-0.594 0.202,-0.212 0.341,0.212 -0.273,0.225 z m 28.55,5.767 0.07,-0.082 c 0.029,0.126 0.06,0.252 0.088,0.38 z"
   id="path587"
   style="fill:#ffffff;fill-opacity:1;stroke-width:0.478185;stroke-miterlimit:4;stroke-dasharray:none" />

		<path
   d="M 3.782,14.884 V 15.58 C 4.025,15.012 4.293,14.458 4.58,13.915 Z"
   id="path589"
   style="fill:#ffffff;fill-opacity:1;stroke-width:0.478185;stroke-miterlimit:4;stroke-dasharray:none" />

	</g>

</g>
        <g
           id="g595"
           style="fill:#ffffff;fill-opacity:1;stroke-width:0.478185;stroke-miterlimit:4;stroke-dasharray:none">
</g>
        <g
           id="g597"
           style="fill:#ffffff;fill-opacity:1;stroke-width:0.478185;stroke-miterlimit:4;stroke-dasharray:none">
</g>
        <g
           id="g599"
           style="fill:#ffffff;fill-opacity:1;stroke-width:0.478185;stroke-miterlimit:4;stroke-dasharray:none">
</g>
        <g
           id="g601"
           style="fill:#ffffff;fill-opacity:1;stroke-width:0.478185;stroke-miterlimit:4;stroke-dasharray:none">
</g>
        <g
           id="g603"
           style="fill:#ffffff;fill-opacity:1;stroke-width:0.478185;stroke-miterlimit:4;stroke-dasharray:none">
</g>
        <g
           id="g605"
           style="fill:#ffffff;fill-opacity:1;stroke-width:0.478185;stroke-miterlimit:4;stroke-dasharray:none">
</g>
        <g
           id="g607"
           style="fill:#ffffff;fill-opacity:1;stroke-width:0.478185;stroke-miterlimit:4;stroke-dasharray:none">
</g>
        <g
           id="g609"
           style="fill:#ffffff;fill-opacity:1;stroke-width:0.478185;stroke-miterlimit:4;stroke-dasharray:none">
</g>
        <g
           id="g611"
           style="fill:#ffffff;fill-opacity:1;stroke-width:0.478185;stroke-miterlimit:4;stroke-dasharray:none">
</g>
        <g
           id="g613"
           style="fill:#ffffff;fill-opacity:1;stroke-width:0.478185;stroke-miterlimit:4;stroke-dasharray:none">
</g>
        <g
           id="g615"
           style="fill:#ffffff;fill-opacity:1;stroke-width:0.478185;stroke-miterlimit:4;stroke-dasharray:none">
</g>
        <g
           id="g617"
           style="fill:#ffffff;fill-opacity:1;stroke-width:0.478185;stroke-miterlimit:4;stroke-dasharray:none">
</g>
        <g
           id="g619"
           style="fill:#ffffff;fill-opacity:1;stroke-width:0.478185;stroke-miterlimit:4;stroke-dasharray:none">
</g>
        <g
           id="g621"
           style="fill:#ffffff;fill-opacity:1;stroke-width:0.478185;stroke-miterlimit:4;stroke-dasharray:none">
</g>
        <g
           id="g623"
           style="fill:#ffffff;fill-opacity:1;stroke-width:0.478185;stroke-miterlimit:4;stroke-dasharray:none">
</g>
      </g>
      <text
         xml:space="preserve"
         style="font-style:normal;font-variant:normal;font-weight:normal;font-stretch:normal;font-size:20.8043px;line-height:1.25;font-family:sans-serif;-inkscape-font-specification:'sans-serif, Normal';font-variant-ligatures:normal;font-variant-caps:normal;font-variant-numeric:normal;font-variant-east-asian:normal;fill:#ffffff;fill-opacity:1;stroke:none;stroke-width:0.520109"
         x="33.905499"
         y="77.730072"
         id="text3528"
         transform="scale(1.0536574,0.94907509)"><tspan
           sodipodi:role="line"
           id="tspan3698"
           x="33.905499"
           y="77.730072">IATGE A ÍTACA</tspan></text>
      <g
         id="g3827"
         transform="translate(-7.1510974,25.716382)"
         style="fill:#ffffff;fill-opacity:1;stroke:#ffffff;stroke-opacity:1">
        <g
           id="g432"
           transform="matrix(0.07988633,-0.02952852,0.02587191,0.06999373,1.4253512,9.3111617)"
           inkscape:transform-center-x="-87.350926"
           inkscape:transform-center-y="188.78811"
           style="fill:#ffffff;fill-opacity:1;stroke:#ffffff;stroke-opacity:1">
	<path
   d="m 196.29591,134.92768 c 0,-17.132 0,-94.523998 0,-94.523998 h -12.723 -7.534 -12.717 c 0,0 0,77.391998 0,94.523998 0,17.132 -32.207,37.929 -32.207,62.346 0,24.411 0,201.009 0,207.236 0,6.229 4.166,16.615 13.501,16.615 6.355,0 22.012,0 31.435,0 4.45,0 7.534,0 7.534,0 9.423,0 25.073,0 31.429,0 9.342,0 13.513,-10.387 13.513,-16.615 0,-6.228 0,-182.826 0,-207.236 -10e-4,-24.417 -32.231,-45.203 -32.231,-62.346 z m -25.857,27.757 c -2.085,2.847 -4.415,6.437 -6.947,10.579 -2.562,4.153 -4.99,8.993 -7.459,14.244 -0.941,2.684 -1.906,5.496 -2.713,8.313 -0.029,2.986 -0.976,5.188 -0.563,8.935 0.25,6.948 0.523,14.256 0.801,21.82 0.5,15.133 0.593,31.284 0.721,47.422 -0.035,32.287 -1.011,64.588 -2.521,88.801 -0.662,12.107 -1.748,22.191 -2.26,29.256 -0.627,7.064 -1.15,11.107 -1.15,11.107 0,0 -0.528,-4.043 -1.156,-11.107 -0.511,-7.064 -1.598,-17.148 -2.26,-29.256 -1.51,-24.213 -2.487,-56.514 -2.521,-88.801 0.116,-16.139 0.209,-32.289 0.72,-47.422 0.279,-7.563 0.552,-14.872 0.802,-21.82 -0.122,-3.224 1.092,-7.604 1.784,-11.09 1.342,-3.282 2.829,-6.327 4.247,-9.196 1.726,-2.638 3.358,-5.165 4.926,-7.564 1.784,-2.19 3.474,-4.258 5.054,-6.222 3.288,-3.788 6.21,-6.989 8.761,-9.487 5.042,-5.042 8.278,-7.517 8.278,-7.517 0,0 -2.524,3.224 -6.544,9.005 z"
   id="path430"
   style="fill:#ffffff;fill-opacity:1;stroke:#ffffff;stroke-opacity:1" />

<text
   xml:space="preserve"
   style="font-style:normal;font-weight:normal;font-size:40px;line-height:1.25;font-family:sans-serif;fill:#ffffff;fill-opacity:1;stroke:#ffffff;stroke-opacity:1"
   x="-224.77921"
   y="718.25507"
   id="text3520"><tspan
     id="tspan3518"
     x="-224.77921"
     y="718.25507"
     sodipodi:role="line"></tspan></text>
</g>
        <rect
           style="fill:#ffffff;fill-opacity:1;stroke:#ffffff;stroke-width:0.769788;stroke-miterlimit:4;stroke-dasharray:none;stroke-opacity:1"
           id="rect3734"
           width="7.5847535"
           height="15.287354"
           x="9.1549129"
           y="39.363583"
           transform="matrix(0.93716774,-0.34887909,0.35769579,0.93383817,0,0)" />
        <rect
           style="fill:#ffffff;fill-opacity:1;stroke:#ffffff;stroke-width:0.970783;stroke-miterlimit:4;stroke-dasharray:none;stroke-opacity:1"
           id="rect3734-6"
           width="7.493475"
           height="24.608921"
           x="41.205727"
           y="8.5881653"
           transform="rotate(19.772076)" />
        <rect
           style="opacity:1;fill:#ffffff;fill-opacity:1;stroke:#ffffff;stroke-width:0.807305;stroke-miterlimit:4;stroke-dasharray:none;stroke-opacity:1"
           id="rect3818"
           width="6.1488223"
           height="2.5160565"
           x="28.316622"
           y="45.415173" />
      </g>
      <path
         style="fill:#ffffff;fill-opacity:0;stroke:#000000;stroke-width:0.660379;stroke-miterlimit:4;stroke-dasharray:none;stroke-opacity:0"
         d="M 18.02723,66.566893 C 12.778447,52.712252 9.9584887,44.885885 9.9584887,44.173325 c 0,-0.392581 0.2145333,-1.337331 0.4767403,-2.099448 0.262207,-0.762119 0.476499,-1.663859 0.476205,-2.003869 C 10.911143,39.729997 10.434274,38.19635 9.8517309,36.661899 9.269188,35.127451 8.759913,33.697277 8.7200083,33.483737 8.6694019,33.212928 8.9867736,32.965424 9.7691703,32.665543 l 1.1217157,-0.42994 0.734107,1.939512 c 0.403759,1.066734 1.000628,2.644672 1.326375,3.506533 0.55464,1.467467 0.68258,1.617819 2.013796,2.366595 2.456631,1.381792 1.790451,-0.04193 8.560183,18.294379 0.205713,0.557191 0.438689,1.013074 0.517725,1.013074 0.07904,0 1.098913,-2.680907 2.266393,-5.957568 1.167479,-3.276661 2.229959,-5.960271 2.361062,-5.963578 0.306748,-0.0077 7.093562,2.412809 7.328908,2.613887 0.0978,0.08356 -1.731065,5.456682 -4.064134,11.940281 l -4.241949,11.788357 -3.444515,0.0601 -3.444517,0.0601 z m -1.394384,-8.006942 c 0,-0.04435 -0.361544,-1.30473 -0.80343,-2.800845 -0.933948,-3.16211 -1.85262,-5.788803 -3.230761,-9.237483 -1.043454,-2.611151 -1.072835,-3.037797 -0.351446,-5.103264 0.49028,-1.403758 -0.01056,-1.0448 -0.706763,0.506547 -0.351886,0.784106 -0.628478,1.834142 -0.628478,2.385915 0,1.609973 4.890985,14.329764 5.510049,14.329764 0.115956,0 0.210829,-0.03628 0.210829,-0.08063 z"
         id="path4304" />
      <path
         style="fill:#ffffff;fill-opacity:0;stroke:#000000;stroke-width:0.660379;stroke-miterlimit:4;stroke-dasharray:none;stroke-opacity:0"
         d="M 18.02723,66.566893 C 12.778447,52.712252 9.9584887,44.885885 9.9584887,44.173325 c 0,-0.392581 0.2145333,-1.337331 0.4767403,-2.099448 0.262207,-0.762119 0.476499,-1.663859 0.476205,-2.003869 C 10.911143,39.729997 10.434274,38.19635 9.8517309,36.661899 9.269188,35.127451 8.759913,33.697277 8.7200083,33.483737 8.6694019,33.212928 8.9867736,32.965424 9.7691703,32.665543 l 1.1217157,-0.42994 0.734107,1.939512 c 0.403759,1.066734 1.000628,2.644672 1.326375,3.506533 0.55464,1.467467 0.68258,1.617819 2.013796,2.366595 2.456631,1.381792 1.790451,-0.04193 8.560183,18.294379 0.205713,0.557191 0.438689,1.013074 0.517725,1.013074 0.07904,0 1.098913,-2.680907 2.266393,-5.957568 1.167479,-3.276661 2.229959,-5.960271 2.361062,-5.963578 0.306748,-0.0077 7.093562,2.412809 7.328908,2.613887 0.0978,0.08356 -1.731065,5.456682 -4.064134,11.940281 l -4.241949,11.788357 -3.444515,0.0601 -3.444517,0.0601 z m -1.394384,-8.006942 c 0,-0.04435 -0.361544,-1.30473 -0.80343,-2.800845 -0.933948,-3.16211 -1.85262,-5.788803 -3.230761,-9.237483 -1.043454,-2.611151 -1.072835,-3.037797 -0.351446,-5.103264 0.49028,-1.403758 -0.01056,-1.0448 -0.706763,0.506547 -0.351886,0.784106 -0.628478,1.834142 -0.628478,2.385915 0,1.609973 4.890985,14.329764 5.510049,14.329764 0.115956,0 0.210829,-0.03628 0.210829,-0.08063 z"
         id="path4306" />
      <path
         style="fill:#ffffff;fill-opacity:0;stroke:#000000;stroke-width:0.660379;stroke-miterlimit:4;stroke-dasharray:none;stroke-opacity:0"
         d="M 18.02723,66.566893 C 12.778447,52.712252 9.9584887,44.885885 9.9584887,44.173325 c 0,-0.392581 0.2145333,-1.337331 0.4767403,-2.099448 0.262207,-0.762119 0.476499,-1.663859 0.476205,-2.003869 C 10.911143,39.729997 10.434274,38.19635 9.8517309,36.661899 9.269188,35.127451 8.759913,33.697277 8.7200083,33.483737 8.6694019,33.212928 8.9867736,32.965424 9.7691703,32.665543 l 1.1217157,-0.42994 0.734107,1.939512 c 0.403759,1.066734 1.000628,2.644672 1.326375,3.506533 0.55464,1.467467 0.68258,1.617819 2.013796,2.366595 2.456631,1.381792 1.790451,-0.04193 8.560183,18.294379 0.205713,0.557191 0.438689,1.013074 0.517725,1.013074 0.07904,0 1.098913,-2.680907 2.266393,-5.957568 1.167479,-3.276661 2.229959,-5.960271 2.361062,-5.963578 0.306748,-0.0077 7.093562,2.412809 7.328908,2.613887 0.0978,0.08356 -1.731065,5.456682 -4.064134,11.940281 l -4.241949,11.788357 -3.444515,0.0601 -3.444517,0.0601 z m -1.394384,-8.006942 c 0,-0.04435 -0.361544,-1.30473 -0.80343,-2.800845 -0.933948,-3.16211 -1.85262,-5.788803 -3.230761,-9.237483 -1.043454,-2.611151 -1.072835,-3.037797 -0.351446,-5.103264 0.49028,-1.403758 -0.01056,-1.0448 -0.706763,0.506547 -0.351886,0.784106 -0.628478,1.834142 -0.628478,2.385915 0,1.609973 4.890985,14.329764 5.510049,14.329764 0.115956,0 0.210829,-0.03628 0.210829,-0.08063 z"
         id="path4308" />
      <path
         style="fill:#ffffff;fill-opacity:0;stroke:#000000;stroke-width:0.660379;stroke-miterlimit:4;stroke-dasharray:none;stroke-opacity:0"
         d="M 18.02723,66.566893 C 12.778447,52.712252 9.9584887,44.885885 9.9584887,44.173325 c 0,-0.392581 0.2145333,-1.337331 0.4767403,-2.099448 0.262207,-0.762119 0.476499,-1.663859 0.476205,-2.003869 C 10.911143,39.729997 10.434274,38.19635 9.8517309,36.661899 9.269188,35.127451 8.759913,33.697277 8.7200083,33.483737 8.6694019,33.212928 8.9867736,32.965424 9.7691703,32.665543 l 1.1217157,-0.42994 0.734107,1.939512 c 0.403759,1.066734 1.000628,2.644672 1.326375,3.506533 0.55464,1.467467 0.68258,1.617819 2.013796,2.366595 2.456631,1.381792 1.790451,-0.04193 8.560183,18.294379 0.205713,0.557191 0.438689,1.013074 0.517725,1.013074 0.07904,0 1.098913,-2.680907 2.266393,-5.957568 1.167479,-3.276661 2.229959,-5.960271 2.361062,-5.963578 0.306748,-0.0077 7.093562,2.412809 7.328908,2.613887 0.0978,0.08356 -1.731065,5.456682 -4.064134,11.940281 l -4.241949,11.788357 -3.444515,0.0601 -3.444517,0.0601 z m -1.394384,-8.006942 c 0,-0.04435 -0.361544,-1.30473 -0.80343,-2.800845 -0.933948,-3.16211 -1.85262,-5.788803 -3.230761,-9.237483 -1.043454,-2.611151 -1.072835,-3.037797 -0.351446,-5.103264 0.49028,-1.403758 -0.01056,-1.0448 -0.706763,0.506547 -0.351886,0.784106 -0.628478,1.834142 -0.628478,2.385915 0,1.609973 4.890985,14.329764 5.510049,14.329764 0.115956,0 0.210829,-0.03628 0.210829,-0.08063 z"
         id="path4310" />
      <path
         style="fill:#ffffff;fill-opacity:0;stroke:#000000;stroke-width:0.660379;stroke-miterlimit:4;stroke-dasharray:none;stroke-opacity:0"
         d="m 37.371027,73.061964 c 0,-0.536332 0.09535,-0.595924 0.953482,-0.595924 h 0.953479 v -5.840063 -5.840063 h -0.953479 c -0.858134,0 -0.953482,-0.05959 -0.953482,-0.595924 v -0.595926 h 2.979624 2.979624 v 0.595926 c 0,0.547368 -0.0874,0.595924 -1.072663,0.595924 h -1.072666 v 5.840063 5.840063 h 1.072666 c 0.98526,0 1.072663,0.04856 1.072663,0.595924 v 0.595926 h -2.979624 -2.979624 z"
         id="path4312" />
      <path
         style="fill:#ffffff;fill-opacity:0;stroke:#000000;stroke-width:0.660379;stroke-miterlimit:4;stroke-dasharray:none;stroke-opacity:0"
         d="m 74.077382,60.96469 c -0.259789,-0.426085 -0.472747,-0.962416 -0.473236,-1.191847 -5.3e-4,-0.229431 -0.108157,-0.417147 -0.239261,-0.417147 -0.13199,0 -0.238371,-0.627883 -0.238371,-1.406901 0,-1.348915 -0.02947,-1.417177 -0.71511,-1.656191 -0.626163,-0.218281 -0.71482,-0.362011 -0.71278,-1.155576 0.0028,-1.088869 0.929831,-3.16965 1.909001,-4.284861 0.390906,-0.445217 0.710739,-1.020289 0.710739,-1.277932 0,-0.686684 -0.121957,-0.59128 -0.848563,0.663811 -0.360524,0.622741 -0.960681,1.523126 -1.333685,2.000853 -0.373005,0.477729 -0.676815,1.067694 -0.675138,1.311034 0.0016,0.243343 -0.392366,1.649188 -0.875662,3.124099 l -0.878718,2.681664 h -1.40779 -1.40779 l 0.16146,-0.774703 c 0.900715,-4.321717 3.805756,-10.130499 7.170634,-14.33807 l 1.807538,-2.260211 1.110408,0.02424 c 2.090711,0.04566 3.6106,-1.333032 3.612402,-3.276814 7.93e-4,-0.95113 0.01495,-0.966155 1.518343,-1.621102 1.517004,-0.660879 2.387227,-1.288823 2.59833,-1.87493 0.07915,-0.219742 0.314219,-0.122947 0.799026,0.329017 0.377788,0.352192 1.001138,0.759113 1.385226,0.904269 l 0.698341,0.263917 -1.890189,1.13312 c -3.451108,2.068854 -3.5571,2.180889 -2.06897,2.186914 1.128673,0.0046 2.985479,0.550272 3.10637,0.912944 0.05303,0.159097 0.593796,0.275286 1.281223,0.275286 1.00415,0 1.177097,-0.06499 1.110086,-0.417147 -0.05358,-0.28158 -0.371697,-0.455883 -0.978852,-0.536334 -0.49471,-0.06555 -0.895922,-0.199634 -0.89158,-0.297961 0.0043,-0.09833 0.0079,-0.286044 0.0079,-0.417147 0,-0.131104 -0.348615,-0.238903 -0.774703,-0.239554 l -0.774703,-0.0013 0.715111,-0.586169 c 1.013592,-0.830831 2.610014,-0.834448 3.260582,-0.0074 0.539977,0.686472 1.699202,0.795837 2.446263,0.23079 0.742466,-0.561565 0.981552,-0.403317 0.371586,0.24596 -0.379507,0.403968 -0.815194,0.595923 -1.352584,0.595923 -0.721913,0 -0.792744,0.06389 -0.792744,0.715111 0,0.690279 0.03784,0.71511 1.089691,0.71511 0.650788,0 1.233705,-0.144015 1.447247,-0.357555 0.196654,-0.196657 0.605547,-0.357555 0.908651,-0.357555 0.727607,0 0.994587,-0.873898 0.331295,-1.084419 -0.884658,-0.280781 -0.01535,-0.822647 1.317662,-0.821356 l 1.222256,0.0013 -0.654629,0.535148 c -0.489956,0.400529 -0.617882,0.670068 -0.508532,1.071481 0.08035,0.294984 0.285716,0.536334 0.456356,0.536334 0.170643,0 0.479933,0.06511 0.687311,0.144688 0.300566,0.115329 0.377049,-0.02849 0.377049,-0.708996 0,-0.692169 0.124021,-0.916271 0.655519,-1.184516 1.341289,-0.676945 2.590122,-0.646486 4.244222,0.103515 1.31328,0.595469 1.53624,0.785953 1.53624,1.312434 0,0.421045 0.15508,0.656421 0.49022,0.744064 0.3063,0.0801 0.44045,0.257911 0.35756,0.473919 -0.073,0.190148 -0.13267,0.390583 -0.13267,0.445413 0,0.05483 -0.3682,0.09969 -0.81823,0.09969 -0.61997,0 -0.85645,0.120412 -0.97596,0.49694 -0.12443,0.392078 -0.28459,0.465098 -0.75898,0.346033 -0.33069,-0.083 -0.91054,-0.212762 -1.28855,-0.288367 -0.37802,-0.0756 -0.686474,-0.204502 -0.685466,-0.286441 0.0011,-0.08194 0.430076,-0.393533 0.953476,-0.69243 1.10751,-0.632463 1.16155,-0.813054 0.37004,-1.23666 -0.85509,-0.457628 -2.774785,-0.189836 -3.196941,0.445963 -0.18942,0.285285 -0.58715,0.499851 -0.926539,0.499851 -0.477295,0 -0.570047,0.09409 -0.469982,0.47674 0.08103,0.309848 0.0073,0.476742 -0.210568,0.476742 -0.184383,0 -0.335241,0.107264 -0.335241,0.238368 0,0.440373 -0.65814,0.243591 -0.783068,-0.234135 -0.111035,-0.424598 -0.204486,-0.445034 -0.921687,-0.201544 -0.43897,0.149027 -1.468543,0.652669 -2.287939,1.119201 -1.145956,0.652463 -1.489813,0.974066 -1.489813,1.393394 0,0.780703 0.794977,1.467654 1.903605,1.64493 0.925788,0.14804 0.956834,0.182954 0.956834,1.076018 0,1.205852 0.694531,1.280872 1.241396,0.134088 0.28149,-0.590293 0.622694,-0.862774 1.355182,-1.082233 l 0.978972,-0.293306 v -1.244129 c 0,-1.602949 0.388178,-1.898764 2.005859,-1.528588 1.10272,0.252341 1.13202,0.281824 1.04246,1.049007 -0.07807,0.668723 -0.01749,0.788074 0.39631,0.78092 0.26866,-0.0047 0.75663,-0.161745 1.08439,-0.34911 0.87148,-0.498181 0.95348,-0.450397 0.95348,0.555646 0,0.730118 0.11948,0.977141 0.59593,1.232131 1.26173,0.675259 0.34866,2.157039 -1.01307,1.64406 -0.40514,-0.152617 -0.53634,-0.116018 -0.53634,0.149614 0,0.477432 -1.27881,0.463756 -1.678583,-0.01794 -0.449805,-0.541981 -1.521849,-0.349531 -1.612892,0.289539 -0.05006,0.351395 0.08404,0.565856 0.42061,0.672679 0.271751,0.08625 0.432396,0.256654 0.356984,0.378674 -0.08378,0.135557 -0.307665,0.130575 -0.57558,-0.01281 -0.357431,-0.191291 -0.594934,-0.06148 -1.285025,0.702377 -0.465606,0.515368 -1.194144,1.116779 -1.618973,1.336465 -1.20283,0.622007 -3.30296,2.721952 -3.30296,3.302667 0,0.31999 -0.281699,0.676357 -0.756219,0.956662 -0.415922,0.245692 -1.156189,0.808059 -1.645039,1.249707 -0.809159,0.731025 -0.877437,0.887875 -0.761799,1.750012 0.06986,0.520861 0.05221,0.947018 -0.03922,0.947018 -0.518609,0 -1.088379,-0.565933 -1.088379,-1.081051 0,-0.583522 -0.01558,-0.587539 -2.280184,-0.587539 -1.254102,0 -2.50498,0.120306 -2.779729,0.267348 -0.274748,0.14704 -1.192519,0.412338 -2.039487,0.589545 -0.846971,0.177213 -2.127697,0.653907 -2.84606,1.059323 -0.718362,0.405421 -1.330486,0.703273 -1.360276,0.661897 -0.02979,-0.04137 -0.331282,-0.450659 -0.66998,-0.909523 -0.338699,-0.458862 -0.691094,-1.343811 -0.783103,-1.96655 -0.136004,-0.920525 -0.257046,-1.132258 -0.647288,-1.132258 -0.429834,0 -0.468487,0.11984 -0.369829,1.146603 0.06776,0.705178 0.354743,1.506519 0.745437,2.081477 0.759423,1.117592 0.801894,1.539317 0.15502,1.539317 -0.286007,0 -0.671283,-0.31333 -0.952588,-0.774702 z m 17.355941,-7.854288 c 0.368636,-0.368636 0.368716,-1.076889 1.35e-4,-1.199751 -0.184779,-0.06159 -0.150352,-0.14732 0.09732,-0.242363 0.270631,-0.103852 0.426016,0.02336 0.528822,0.432993 0.113499,0.45221 0.302197,0.580057 0.856152,0.580057 1.062826,0 0.976805,-0.828644 -0.123724,-1.19185 -0.458862,-0.151437 -0.834295,-0.427924 -0.834295,-0.61441 0,-0.580594 -0.03258,-0.687028 -0.314087,-1.026227 -0.224358,-0.270335 -0.302162,-0.227475 -0.432707,0.238371 -0.14678,0.52378 -0.161015,0.528514 -0.182925,0.06083 -0.01307,-0.27893 -0.183486,-0.639705 -0.378704,-0.801722 -0.446108,-0.370237 -1.865497,-0.131374 -2.400913,0.404042 -0.357728,0.357727 -0.348404,0.408395 0.121425,0.659839 l 0.508907,0.27236 -0.486643,0.440404 c -0.570663,0.516443 -0.642305,1.447628 -0.1266,1.64552 0.246086,0.09443 0.604451,-0.235643 1.132258,-1.042879 0.424717,-0.64957 0.840928,-1.182965 0.924912,-1.185322 0.282146,-0.0079 0.356214,1.689033 0.08106,1.85711 -0.148341,0.09061 -0.338707,0.352467 -0.423032,0.581901 -0.122671,0.333753 -0.02138,0.417147 0.506632,0.417147 0.362977,0 0.788676,-0.12872 0.945999,-0.286046 z m 1.895041,-2.157246 c -0.05462,-0.16388 -0.242342,-0.297963 -0.417147,-0.297963 -0.174805,0 -0.362519,0.134083 -0.417147,0.297963 -0.05908,0.17725 0.109916,0.297961 0.417147,0.297961 0.307232,0 0.476229,-0.120711 0.417147,-0.297961 z m -5.797497,-2.937057 c 0.624118,-0.624118 0.478145,-1.294586 -0.280934,-1.29036 -1.058116,0.0059 -1.326401,0.286144 -0.98701,1.031028 0.328565,0.721119 0.725062,0.802214 1.267944,0.259332 z m -2.531789,-4.549328 c 0.06942,-0.48718 0.01992,-0.502079 -0.946677,-0.284898 -1.179785,0.265078 -1.258157,0.31633 -1.035259,0.676986 0.09086,0.147016 0.557482,0.234601 1.036942,0.194639 0.683127,-0.05694 0.88759,-0.183889 0.944994,-0.586727 z m 0.0029,-1.690857 c 0.06031,-0.424633 -0.03898,-0.535654 -0.47674,-0.533077 -1.037177,0.0061 -1.625576,0.278794 -1.625576,0.753361 0,0.396872 0.144026,0.452223 1.013074,0.389348 0.842166,-0.06093 1.025922,-0.16378 1.089242,-0.609632 z"
         id="path4314" />
      <path
         style="fill:#ffffff;fill-opacity:0;stroke:#000000;stroke-width:0.660379;stroke-miterlimit:4;stroke-dasharray:none;stroke-opacity:0"
         d="m 74.077382,60.96469 c -0.259789,-0.426085 -0.472747,-0.962416 -0.473236,-1.191847 -5.3e-4,-0.229431 -0.108157,-0.417147 -0.239261,-0.417147 -0.13199,0 -0.238371,-0.627883 -0.238371,-1.406901 0,-1.348915 -0.02947,-1.417177 -0.71511,-1.656191 -0.626163,-0.218281 -0.71482,-0.362011 -0.71278,-1.155576 0.0028,-1.088869 0.929831,-3.16965 1.909001,-4.284861 0.390906,-0.445217 0.710739,-1.020289 0.710739,-1.277932 0,-0.686684 -0.121957,-0.59128 -0.848563,0.663811 -0.360524,0.622741 -0.960681,1.523126 -1.333685,2.000853 -0.373005,0.477729 -0.676815,1.067694 -0.675138,1.311034 0.0016,0.243343 -0.392366,1.649188 -0.875662,3.124099 l -0.878718,2.681664 h -1.40779 -1.40779 l 0.16146,-0.774703 c 0.900715,-4.321717 3.805756,-10.130499 7.170634,-14.33807 l 1.807538,-2.260211 1.110408,0.02424 c 2.090711,0.04566 3.6106,-1.333032 3.612402,-3.276814 7.93e-4,-0.95113 0.01495,-0.966155 1.518343,-1.621102 1.517004,-0.660879 2.387227,-1.288823 2.59833,-1.87493 0.07915,-0.219742 0.314219,-0.122947 0.799026,0.329017 0.377788,0.352192 1.001138,0.759113 1.385226,0.904269 l 0.698341,0.263917 -1.890189,1.13312 c -3.451108,2.068854 -3.5571,2.180889 -2.06897,2.186914 1.128673,0.0046 2.985479,0.550272 3.10637,0.912944 0.05303,0.159097 0.593796,0.275286 1.281223,0.275286 1.00415,0 1.177097,-0.06499 1.110086,-0.417147 -0.05358,-0.28158 -0.371697,-0.455883 -0.978852,-0.536334 -0.49471,-0.06555 -0.895922,-0.199634 -0.89158,-0.297961 0.0043,-0.09833 0.0079,-0.286044 0.0079,-0.417147 0,-0.131104 -0.348615,-0.238903 -0.774703,-0.239554 l -0.774703,-0.0013 0.715111,-0.586169 c 1.013592,-0.830831 2.610014,-0.834448 3.260582,-0.0074 0.539977,0.686472 1.699202,0.795837 2.446263,0.23079 0.742466,-0.561565 0.981552,-0.403317 0.371586,0.24596 -0.379507,0.403968 -0.815194,0.595923 -1.352584,0.595923 -0.721913,0 -0.792744,0.06389 -0.792744,0.715111 0,0.690279 0.03784,0.71511 1.089691,0.71511 0.650788,0 1.233705,-0.144015 1.447247,-0.357555 0.196654,-0.196657 0.605547,-0.357555 0.908651,-0.357555 0.727607,0 0.994587,-0.873898 0.331295,-1.084419 -0.884658,-0.280781 -0.01535,-0.822647 1.317662,-0.821356 l 1.222256,0.0013 -0.654629,0.535148 c -0.489956,0.400529 -0.617882,0.670068 -0.508532,1.071481 0.08035,0.294984 0.285716,0.536334 0.456356,0.536334 0.170643,0 0.479933,0.06511 0.687311,0.144688 0.300566,0.115329 0.377049,-0.02849 0.377049,-0.708996 0,-0.692169 0.124021,-0.916271 0.655519,-1.184516 1.341289,-0.676945 2.590122,-0.646486 4.244222,0.103515 1.31328,0.595469 1.53624,0.785953 1.53624,1.312434 0,0.421045 0.15508,0.656421 0.49022,0.744064 0.3063,0.0801 0.44045,0.257911 0.35756,0.473919 -0.073,0.190148 -0.13267,0.390583 -0.13267,0.445413 0,0.05483 -0.3682,0.09969 -0.81823,0.09969 -0.61997,0 -0.85645,0.120412 -0.97596,0.49694 -0.12443,0.392078 -0.28459,0.465098 -0.75898,0.346033 -0.33069,-0.083 -0.91054,-0.212762 -1.28855,-0.288367 -0.37802,-0.0756 -0.686474,-0.204502 -0.685466,-0.286441 0.0011,-0.08194 0.430076,-0.393533 0.953476,-0.69243 1.10751,-0.632463 1.16155,-0.813054 0.37004,-1.23666 -0.85509,-0.457628 -2.774785,-0.189836 -3.196941,0.445963 -0.18942,0.285285 -0.58715,0.499851 -0.926539,0.499851 -0.477295,0 -0.570047,0.09409 -0.469982,0.47674 0.08103,0.309848 0.0073,0.476742 -0.210568,0.476742 -0.184383,0 -0.335241,0.107264 -0.335241,0.238368 0,0.440373 -0.65814,0.243591 -0.783068,-0.234135 -0.111035,-0.424598 -0.204486,-0.445034 -0.921687,-0.201544 -0.43897,0.149027 -1.468543,0.652669 -2.287939,1.119201 -1.145956,0.652463 -1.489813,0.974066 -1.489813,1.393394 0,0.780703 0.794977,1.467654 1.903605,1.64493 0.925788,0.14804 0.956834,0.182954 0.956834,1.076018 0,1.205852 0.694531,1.280872 1.241396,0.134088 0.28149,-0.590293 0.622694,-0.862774 1.355182,-1.082233 l 0.978972,-0.293306 v -1.244129 c 0,-1.602949 0.388178,-1.898764 2.005859,-1.528588 1.10272,0.252341 1.13202,0.281824 1.04246,1.049007 -0.07807,0.668723 -0.01749,0.788074 0.39631,0.78092 0.26866,-0.0047 0.75663,-0.161745 1.08439,-0.34911 0.87148,-0.498181 0.95348,-0.450397 0.95348,0.555646 0,0.730118 0.11948,0.977141 0.59593,1.232131 1.26173,0.675259 0.34866,2.157039 -1.01307,1.64406 -0.40514,-0.152617 -0.53634,-0.116018 -0.53634,0.149614 0,0.477432 -1.27881,0.463756 -1.678583,-0.01794 -0.449805,-0.541981 -1.521849,-0.349531 -1.612892,0.289539 -0.05006,0.351395 0.08404,0.565856 0.42061,0.672679 0.271751,0.08625 0.432396,0.256654 0.356984,0.378674 -0.08378,0.135557 -0.307665,0.130575 -0.57558,-0.01281 -0.357431,-0.191291 -0.594934,-0.06148 -1.285025,0.702377 -0.465606,0.515368 -1.194144,1.116779 -1.618973,1.336465 -1.20283,0.622007 -3.30296,2.721952 -3.30296,3.302667 0,0.31999 -0.281699,0.676357 -0.756219,0.956662 -0.415922,0.245692 -1.156189,0.808059 -1.645039,1.249707 -0.809159,0.731025 -0.877437,0.887875 -0.761799,1.750012 0.06986,0.520861 0.05221,0.947018 -0.03922,0.947018 -0.518609,0 -1.088379,-0.565933 -1.088379,-1.081051 0,-0.583522 -0.01558,-0.587539 -2.280184,-0.587539 -1.254102,0 -2.50498,0.120306 -2.779729,0.267348 -0.274748,0.14704 -1.192519,0.412338 -2.039487,0.589545 -0.846971,0.177213 -2.127697,0.653907 -2.84606,1.059323 -0.718362,0.405421 -1.330486,0.703273 -1.360276,0.661897 -0.02979,-0.04137 -0.331282,-0.450659 -0.66998,-0.909523 -0.338699,-0.458862 -0.691094,-1.343811 -0.783103,-1.96655 -0.136004,-0.920525 -0.257046,-1.132258 -0.647288,-1.132258 -0.429834,0 -0.468487,0.11984 -0.369829,1.146603 0.06776,0.705178 0.354743,1.506519 0.745437,2.081477 0.759423,1.117592 0.801894,1.539317 0.15502,1.539317 -0.286007,0 -0.671283,-0.31333 -0.952588,-0.774702 z m 17.355941,-7.854288 c 0.368636,-0.368636 0.368716,-1.076889 1.35e-4,-1.199751 -0.184779,-0.06159 -0.150352,-0.14732 0.09732,-0.242363 0.270631,-0.103852 0.426016,0.02336 0.528822,0.432993 0.113499,0.45221 0.302197,0.580057 0.856152,0.580057 1.062826,0 0.976805,-0.828644 -0.123724,-1.19185 -0.458862,-0.151437 -0.834295,-0.427924 -0.834295,-0.61441 0,-0.580594 -0.03258,-0.687028 -0.314087,-1.026227 -0.224358,-0.270335 -0.302162,-0.227475 -0.432707,0.238371 -0.14678,0.52378 -0.161015,0.528514 -0.182925,0.06083 -0.01307,-0.27893 -0.183486,-0.639705 -0.378704,-0.801722 -0.446108,-0.370237 -1.865497,-0.131374 -2.400913,0.404042 -0.357728,0.357727 -0.348404,0.408395 0.121425,0.659839 l 0.508907,0.27236 -0.486643,0.440404 c -0.570663,0.516443 -0.642305,1.447628 -0.1266,1.64552 0.246086,0.09443 0.604451,-0.235643 1.132258,-1.042879 0.424717,-0.64957 0.840928,-1.182965 0.924912,-1.185322 0.282146,-0.0079 0.356214,1.689033 0.08106,1.85711 -0.148341,0.09061 -0.338707,0.352467 -0.423032,0.581901 -0.122671,0.333753 -0.02138,0.417147 0.506632,0.417147 0.362977,0 0.788676,-0.12872 0.945999,-0.286046 z m 1.895041,-2.157246 c -0.05462,-0.16388 -0.242342,-0.297963 -0.417147,-0.297963 -0.174805,0 -0.362519,0.134083 -0.417147,0.297963 -0.05908,0.17725 0.109916,0.297961 0.417147,0.297961 0.307232,0 0.476229,-0.120711 0.417147,-0.297961 z m -5.797497,-2.937057 c 0.624118,-0.624118 0.478145,-1.294586 -0.280934,-1.29036 -1.058116,0.0059 -1.326401,0.286144 -0.98701,1.031028 0.328565,0.721119 0.725062,0.802214 1.267944,0.259332 z m -2.531789,-4.549328 c 0.06942,-0.48718 0.01992,-0.502079 -0.946677,-0.284898 -1.179785,0.265078 -1.258157,0.31633 -1.035259,0.676986 0.09086,0.147016 0.557482,0.234601 1.036942,0.194639 0.683127,-0.05694 0.88759,-0.183889 0.944994,-0.586727 z m 0.0029,-1.690857 c 0.06031,-0.424633 -0.03898,-0.535654 -0.47674,-0.533077 -1.037177,0.0061 -1.625576,0.278794 -1.625576,0.753361 0,0.396872 0.144026,0.452223 1.013074,0.389348 0.842166,-0.06093 1.025922,-0.16378 1.089242,-0.609632 z"
         id="path4316" />
      <path
         style="fill:#ffffff;fill-opacity:0;stroke:#000000;stroke-width:0.660379;stroke-miterlimit:4;stroke-dasharray:none;stroke-opacity:0"
         d="m 74.077382,60.96469 c -0.259789,-0.426085 -0.472747,-0.962416 -0.473236,-1.191847 -5.3e-4,-0.229431 -0.108157,-0.417147 -0.239261,-0.417147 -0.13199,0 -0.238371,-0.627883 -0.238371,-1.406901 0,-1.348915 -0.02947,-1.417177 -0.71511,-1.656191 -0.626163,-0.218281 -0.71482,-0.362011 -0.71278,-1.155576 0.0028,-1.088869 0.929831,-3.16965 1.909001,-4.284861 0.390906,-0.445217 0.710739,-1.020289 0.710739,-1.277932 0,-0.686684 -0.121957,-0.59128 -0.848563,0.663811 -0.360524,0.622741 -0.960681,1.523126 -1.333685,2.000853 -0.373005,0.477729 -0.676815,1.067694 -0.675138,1.311034 0.0016,0.243343 -0.392366,1.649188 -0.875662,3.124099 l -0.878718,2.681664 h -1.40779 -1.40779 l 0.16146,-0.774703 c 0.900715,-4.321717 3.805756,-10.130499 7.170634,-14.33807 l 1.807538,-2.260211 1.110408,0.02424 c 2.090711,0.04566 3.6106,-1.333032 3.612402,-3.276814 7.93e-4,-0.95113 0.01495,-0.966155 1.518343,-1.621102 1.517004,-0.660879 2.387227,-1.288823 2.59833,-1.87493 0.07915,-0.219742 0.314219,-0.122947 0.799026,0.329017 0.377788,0.352192 1.001138,0.759113 1.385226,0.904269 l 0.698341,0.263917 -1.890189,1.13312 c -3.451108,2.068854 -3.5571,2.180889 -2.06897,2.186914 1.128673,0.0046 2.985479,0.550272 3.10637,0.912944 0.05303,0.159097 0.593796,0.275286 1.281223,0.275286 1.00415,0 1.177097,-0.06499 1.110086,-0.417147 -0.05358,-0.28158 -0.371697,-0.455883 -0.978852,-0.536334 -0.49471,-0.06555 -0.895922,-0.199634 -0.89158,-0.297961 0.0043,-0.09833 0.0079,-0.286044 0.0079,-0.417147 0,-0.131104 -0.348615,-0.238903 -0.774703,-0.239554 l -0.774703,-0.0013 0.715111,-0.586169 c 1.013592,-0.830831 2.610014,-0.834448 3.260582,-0.0074 0.539977,0.686472 1.699202,0.795837 2.446263,0.23079 0.742466,-0.561565 0.981552,-0.403317 0.371586,0.24596 -0.379507,0.403968 -0.815194,0.595923 -1.352584,0.595923 -0.721913,0 -0.792744,0.06389 -0.792744,0.715111 0,0.690279 0.03784,0.71511 1.089691,0.71511 0.650788,0 1.233705,-0.144015 1.447247,-0.357555 0.196654,-0.196657 0.605547,-0.357555 0.908651,-0.357555 0.727607,0 0.994587,-0.873898 0.331295,-1.084419 -0.884658,-0.280781 -0.01535,-0.822647 1.317662,-0.821356 l 1.222256,0.0013 -0.654629,0.535148 c -0.489956,0.400529 -0.617882,0.670068 -0.508532,1.071481 0.08035,0.294984 0.285716,0.536334 0.456356,0.536334 0.170643,0 0.479933,0.06511 0.687311,0.144688 0.300566,0.115329 0.377049,-0.02849 0.377049,-0.708996 0,-0.692169 0.124021,-0.916271 0.655519,-1.184516 1.341289,-0.676945 2.590122,-0.646486 4.244222,0.103515 1.31328,0.595469 1.53624,0.785953 1.53624,1.312434 0,0.421045 0.15508,0.656421 0.49022,0.744064 0.3063,0.0801 0.44045,0.257911 0.35756,0.473919 -0.073,0.190148 -0.13267,0.390583 -0.13267,0.445413 0,0.05483 -0.3682,0.09969 -0.81823,0.09969 -0.61997,0 -0.85645,0.120412 -0.97596,0.49694 -0.12443,0.392078 -0.28459,0.465098 -0.75898,0.346033 -0.33069,-0.083 -0.91054,-0.212762 -1.28855,-0.288367 -0.37802,-0.0756 -0.686474,-0.204502 -0.685466,-0.286441 0.0011,-0.08194 0.430076,-0.393533 0.953476,-0.69243 1.10751,-0.632463 1.16155,-0.813054 0.37004,-1.23666 -0.85509,-0.457628 -2.774785,-0.189836 -3.196941,0.445963 -0.18942,0.285285 -0.58715,0.499851 -0.926539,0.499851 -0.477295,0 -0.570047,0.09409 -0.469982,0.47674 0.08103,0.309848 0.0073,0.476742 -0.210568,0.476742 -0.184383,0 -0.335241,0.107264 -0.335241,0.238368 0,0.440373 -0.65814,0.243591 -0.783068,-0.234135 -0.111035,-0.424598 -0.204486,-0.445034 -0.921687,-0.201544 -0.43897,0.149027 -1.468543,0.652669 -2.287939,1.119201 -1.145956,0.652463 -1.489813,0.974066 -1.489813,1.393394 0,0.780703 0.794977,1.467654 1.903605,1.64493 0.925788,0.14804 0.956834,0.182954 0.956834,1.076018 0,1.205852 0.694531,1.280872 1.241396,0.134088 0.28149,-0.590293 0.622694,-0.862774 1.355182,-1.082233 l 0.978972,-0.293306 v -1.244129 c 0,-1.602949 0.388178,-1.898764 2.005859,-1.528588 1.10272,0.252341 1.13202,0.281824 1.04246,1.049007 -0.07807,0.668723 -0.01749,0.788074 0.39631,0.78092 0.26866,-0.0047 0.75663,-0.161745 1.08439,-0.34911 0.87148,-0.498181 0.95348,-0.450397 0.95348,0.555646 0,0.730118 0.11948,0.977141 0.59593,1.232131 1.26173,0.675259 0.34866,2.157039 -1.01307,1.64406 -0.40514,-0.152617 -0.53634,-0.116018 -0.53634,0.149614 0,0.477432 -1.27881,0.463756 -1.678583,-0.01794 -0.449805,-0.541981 -1.521849,-0.349531 -1.612892,0.289539 -0.05006,0.351395 0.08404,0.565856 0.42061,0.672679 0.271751,0.08625 0.432396,0.256654 0.356984,0.378674 -0.08378,0.135557 -0.307665,0.130575 -0.57558,-0.01281 -0.357431,-0.191291 -0.594934,-0.06148 -1.285025,0.702377 -0.465606,0.515368 -1.194144,1.116779 -1.618973,1.336465 -1.20283,0.622007 -3.30296,2.721952 -3.30296,3.302667 0,0.31999 -0.281699,0.676357 -0.756219,0.956662 -0.415922,0.245692 -1.156189,0.808059 -1.645039,1.249707 -0.809159,0.731025 -0.877437,0.887875 -0.761799,1.750012 0.06986,0.520861 0.05221,0.947018 -0.03922,0.947018 -0.518609,0 -1.088379,-0.565933 -1.088379,-1.081051 0,-0.583522 -0.01558,-0.587539 -2.280184,-0.587539 -1.254102,0 -2.50498,0.120306 -2.779729,0.267348 -0.274748,0.14704 -1.192519,0.412338 -2.039487,0.589545 -0.846971,0.177213 -2.127697,0.653907 -2.84606,1.059323 -0.718362,0.405421 -1.330486,0.703273 -1.360276,0.661897 -0.02979,-0.04137 -0.331282,-0.450659 -0.66998,-0.909523 -0.338699,-0.458862 -0.691094,-1.343811 -0.783103,-1.96655 -0.136004,-0.920525 -0.257046,-1.132258 -0.647288,-1.132258 -0.429834,0 -0.468487,0.11984 -0.369829,1.146603 0.06776,0.705178 0.354743,1.506519 0.745437,2.081477 0.759423,1.117592 0.801894,1.539317 0.15502,1.539317 -0.286007,0 -0.671283,-0.31333 -0.952588,-0.774702 z m 17.355941,-7.854288 c 0.368636,-0.368636 0.368716,-1.076889 1.35e-4,-1.199751 -0.184779,-0.06159 -0.150352,-0.14732 0.09732,-0.242363 0.270631,-0.103852 0.426016,0.02336 0.528822,0.432993 0.113499,0.45221 0.302197,0.580057 0.856152,0.580057 1.062826,0 0.976805,-0.828644 -0.123724,-1.19185 -0.458862,-0.151437 -0.834295,-0.427924 -0.834295,-0.61441 0,-0.580594 -0.03258,-0.687028 -0.314087,-1.026227 -0.224358,-0.270335 -0.302162,-0.227475 -0.432707,0.238371 -0.14678,0.52378 -0.161015,0.528514 -0.182925,0.06083 -0.01307,-0.27893 -0.183486,-0.639705 -0.378704,-0.801722 -0.446108,-0.370237 -1.865497,-0.131374 -2.400913,0.404042 -0.357728,0.357727 -0.348404,0.408395 0.121425,0.659839 l 0.508907,0.27236 -0.486643,0.440404 c -0.570663,0.516443 -0.642305,1.447628 -0.1266,1.64552 0.246086,0.09443 0.604451,-0.235643 1.132258,-1.042879 0.424717,-0.64957 0.840928,-1.182965 0.924912,-1.185322 0.282146,-0.0079 0.356214,1.689033 0.08106,1.85711 -0.148341,0.09061 -0.338707,0.352467 -0.423032,0.581901 -0.122671,0.333753 -0.02138,0.417147 0.506632,0.417147 0.362977,0 0.788676,-0.12872 0.945999,-0.286046 z m 1.895041,-2.157246 c -0.05462,-0.16388 -0.242342,-0.297963 -0.417147,-0.297963 -0.174805,0 -0.362519,0.134083 -0.417147,0.297963 -0.05908,0.17725 0.109916,0.297961 0.417147,0.297961 0.307232,0 0.476229,-0.120711 0.417147,-0.297961 z m -5.797497,-2.937057 c 0.624118,-0.624118 0.478145,-1.294586 -0.280934,-1.29036 -1.058116,0.0059 -1.326401,0.286144 -0.98701,1.031028 0.328565,0.721119 0.725062,0.802214 1.267944,0.259332 z m -2.531789,-4.549328 c 0.06942,-0.48718 0.01992,-0.502079 -0.946677,-0.284898 -1.179785,0.265078 -1.258157,0.31633 -1.035259,0.676986 0.09086,0.147016 0.557482,0.234601 1.036942,0.194639 0.683127,-0.05694 0.88759,-0.183889 0.944994,-0.586727 z m 0.0029,-1.690857 c 0.06031,-0.424633 -0.03898,-0.535654 -0.47674,-0.533077 -1.037177,0.0061 -1.625576,0.278794 -1.625576,0.753361 0,0.396872 0.144026,0.452223 1.013074,0.389348 0.842166,-0.06093 1.025922,-0.16378 1.089242,-0.609632 z"
         id="path4318" />
      <path
         style="fill:#ffffff;fill-opacity:0;stroke:#000000;stroke-width:0.660379;stroke-miterlimit:4;stroke-dasharray:none;stroke-opacity:0"
         d="M 18.02723,66.566893 C 12.778447,52.712252 9.9584887,44.885885 9.9584887,44.173325 c 0,-0.392581 0.2145333,-1.337331 0.4767403,-2.099448 0.262207,-0.762119 0.476499,-1.663859 0.476205,-2.003869 C 10.911143,39.729997 10.434274,38.19635 9.8517309,36.661899 9.269188,35.127451 8.759913,33.697277 8.7200083,33.483737 8.6694019,33.212928 8.9867736,32.965424 9.7691703,32.665543 l 1.1217157,-0.42994 0.734107,1.939512 c 0.403759,1.066734 1.000628,2.644672 1.326375,3.506533 0.55464,1.467467 0.68258,1.617819 2.013796,2.366595 2.456631,1.381792 1.790451,-0.04193 8.560183,18.294379 0.205713,0.557191 0.438689,1.013074 0.517725,1.013074 0.07904,0 1.098913,-2.680907 2.266393,-5.957568 1.167479,-3.276661 2.229959,-5.960271 2.361062,-5.963578 0.306748,-0.0077 7.093562,2.412809 7.328908,2.613887 0.0978,0.08356 -1.731065,5.456682 -4.064134,11.940281 l -4.241949,11.788357 -3.444515,0.0601 -3.444517,0.0601 z m -1.394384,-8.006942 c 0,-0.04435 -0.361544,-1.30473 -0.80343,-2.800845 -0.933948,-3.16211 -1.85262,-5.788803 -3.230761,-9.237483 -1.043454,-2.611151 -1.072835,-3.037797 -0.351446,-5.103264 0.49028,-1.403758 -0.01056,-1.0448 -0.706763,0.506547 -0.351886,0.784106 -0.628478,1.834142 -0.628478,2.385915 0,1.609973 4.890985,14.329764 5.510049,14.329764 0.115956,0 0.210829,-0.03628 0.210829,-0.08063 z"
         id="path4320" />
    </g>
  </g>
</svg>
